<svg width="10" height="11" viewBox="0 0 10 11" fill="none" xmlns="http://www.w3.org/2000/svg">
<path d="M5 0.236328C4.01109 0.236328 3.0444 0.538642 2.22215 1.10504C1.3999 1.67144 0.759043 2.47648 0.380604 3.41837C0.00216639 4.36026 -0.0968502 5.39668 0.0960758 6.39659C0.289002 7.39649 0.765206 8.31496 1.46447 9.03585C2.16373 9.75674 3.05464 10.2477 4.02455 10.4466C4.99445 10.6455 5.99979 10.5434 6.91342 10.1532C7.82705 9.76309 8.60794 9.10241 9.15735 8.25473C9.70676 7.40705 10 6.41046 10 5.39097C9.9986 4.02431 9.47137 2.71405 8.53399 1.74768C7.59661 0.781311 6.32565 0.237771 5 0.236328ZM7.69231 5.78748H5C4.89799 5.78748 4.80017 5.7457 4.72804 5.67134C4.65591 5.59698 4.61539 5.49613 4.61539 5.39097V2.61539C4.61539 2.51023 4.65591 2.40938 4.72804 2.33502C4.80017 2.26066 4.89799 2.21888 5 2.21888C5.10201 2.21888 5.19984 2.26066 5.27197 2.33502C5.34409 2.40938 5.38462 2.51023 5.38462 2.61539V4.99446H7.69231C7.79431 4.99446 7.89214 5.03623 7.96427 5.11059C8.0364 5.18495 8.07692 5.28581 8.07692 5.39097C8.07692 5.49613 8.0364 5.59698 7.96427 5.67134C7.89214 5.7457 7.79431 5.78748 7.69231 5.78748Z" fill="white"/>
</svg>
