<svg width="10" height="12" viewBox="0 0 10 12" fill="none" xmlns="http://www.w3.org/2000/svg">
<path d="M5 0.948242C4.01109 0.948242 3.0444 1.25056 2.22215 1.81696C1.3999 2.38335 0.759043 3.1884 0.380604 4.13029C0.00216639 5.07217 -0.0968502 6.1086 0.0960758 7.1085C0.289002 8.1084 0.765206 9.02687 1.46447 9.74776C2.16373 10.4686 3.05464 10.9596 4.02455 11.1585C4.99445 11.3574 5.99979 11.2553 6.91342 10.8651C7.82705 10.475 8.60794 9.81432 9.15735 8.96664C9.70676 8.11897 10 7.12237 10 6.10288C9.9986 4.73623 9.47137 3.42596 8.53399 2.45959C7.59661 1.49323 6.32565 0.949685 5 0.948242ZM7.69231 6.49939H5C4.89799 6.49939 4.80017 6.45762 4.72804 6.38326C4.65591 6.3089 4.61539 6.20804 4.61539 6.10288V3.32731C4.61539 3.22214 4.65591 3.12129 4.72804 3.04693C4.80017 2.97257 4.89799 2.9308 5 2.9308C5.10201 2.9308 5.19984 2.97257 5.27197 3.04693C5.34409 3.12129 5.38462 3.22214 5.38462 3.32731V5.70637H7.69231C7.79431 5.70637 7.89214 5.74815 7.96427 5.82251C8.0364 5.89687 8.07692 5.99772 8.07692 6.10288C8.07692 6.20804 8.0364 6.3089 7.96427 6.38326C7.89214 6.45762 7.79431 6.49939 7.69231 6.49939Z" fill="white"/>
</svg>
