<svg width="10" height="10" viewBox="0 0 10 10" fill="none" xmlns="http://www.w3.org/2000/svg">
<path d="M5 0C3.58874 0 2.31169 0.417266 1.40411 1.06835C0.950649 1.39568 0.590909 1.78058 0.352814 2.18705C0.114719 2.59353 0 3 0 3.41727C0 3.83453 0.114719 4.24101 0.352814 4.64748C0.590909 5.05396 0.950649 5.43885 1.40411 5.76619C2.31169 6.41727 3.58874 6.83453 5 6.83453C6.41126 6.83453 7.68831 6.41727 8.59524 5.76619C9.04978 5.43885 9.40909 5.05396 9.64719 4.64748C9.88528 4.24101 10 3.83453 10 3.41727C10 3 9.88528 2.59353 9.64719 2.18705C9.40909 1.78058 9.04978 1.39568 8.59524 1.06835C7.68831 0.417266 6.41126 0 5 0ZM0 4.96763V6.77338C0 7 0.114719 7.40647 0.352814 7.81295C0.590909 8.21942 0.950649 8.60432 1.40411 8.93165C2.31169 9.58273 3.58874 10 5 10C6.41126 10 7.68831 9.58273 8.59524 8.93165C9.04978 8.60432 9.40909 8.21942 9.64719 7.81295C9.88528 7.40647 10 7 10 6.77338V4.96763C9.97619 5.01439 9.95238 5.05755 9.92641 5.10072C9.63853 5.58993 9.2381 6.01079 8.75108 6.35971C7.77706 7.06115 6.45671 7.48201 5 7.48201C3.54329 7.48201 2.22294 7.06115 1.24935 6.35971C0.762554 6.01079 0.361688 5.58993 0.074026 5.10072C0.0482684 5.05755 0.0238095 5.01079 0 4.96763Z" fill="white"/>
</svg>
