<svg width="10" height="11" viewBox="0 0 10 11" fill="none" xmlns="http://www.w3.org/2000/svg">
<path d="M5 0.618164C3.58874 0.618164 2.31169 1.04834 1.40411 1.71955C0.950649 2.05701 0.590909 2.45381 0.352814 2.87286C0.114719 3.2919 0 3.71095 0 4.14112C0 4.57129 0.114719 4.99034 0.352814 5.40938C0.590909 5.82843 0.950649 6.22522 1.40411 6.56269C2.31169 7.2339 3.58874 7.66407 5 7.66407C6.41126 7.66407 7.68831 7.2339 8.59524 6.56269C9.04978 6.22522 9.40909 5.82843 9.64719 5.40938C9.88528 4.99034 10 4.57129 10 4.14112C10 3.71095 9.88528 3.2919 9.64719 2.87286C9.40909 2.45381 9.04978 2.05701 8.59524 1.71955C7.68831 1.04834 6.41126 0.618164 5 0.618164ZM0 5.73943V7.60103C0 7.83466 0.114719 8.25371 0.352814 8.67275C0.590909 9.0918 0.950649 9.48859 1.40411 9.82606C2.31169 10.4973 3.58874 10.9274 5 10.9274C6.41126 10.9274 7.68831 10.4973 8.59524 9.82606C9.04978 9.48859 9.40909 9.0918 9.64719 8.67275C9.88528 8.25371 10 7.83466 10 7.60103V5.73943C9.97619 5.78764 9.95238 5.83214 9.92641 5.87664C9.63853 6.38098 9.2381 6.81486 8.75108 7.17457C7.77706 7.8977 6.45671 8.33158 5 8.33158C3.54329 8.33158 2.22294 7.8977 1.24935 7.17457C0.762554 6.81486 0.361688 6.38098 0.074026 5.87664C0.0482684 5.83214 0.0238095 5.78393 0 5.73943Z" fill="white"/>
</svg>
