<svg width="10" height="12" viewBox="0 0 10 12" fill="none" xmlns="http://www.w3.org/2000/svg">
<path d="M5 6.00913C4.3125 6.00913 3.72396 5.75677 3.23437 5.25204C2.74479 4.74732 2.5 4.14057 2.5 3.43181C2.5 2.72305 2.74479 2.11631 3.23437 1.61158C3.72396 1.10685 4.3125 0.854492 5 0.854492C5.6875 0.854492 6.27604 1.10685 6.76562 1.61158C7.25521 2.11631 7.5 2.72305 7.5 3.43181C7.5 4.14057 7.25521 4.74732 6.76562 5.25204C6.27604 5.75677 5.6875 6.00913 5 6.00913ZM0 11.1638V9.35965C0 8.99453 0.0912501 8.65905 0.27375 8.3532C0.45625 8.04736 0.698333 7.81369 1 7.65217C1.64583 7.31927 2.30208 7.0697 2.96875 6.90346C3.63542 6.73722 4.3125 6.65389 5 6.65346C5.6875 6.65303 6.36458 6.73637 7.03125 6.90346C7.69792 7.07056 8.35416 7.32013 9 7.65217C9.30208 7.81326 9.54437 8.04693 9.72687 8.3532C9.90937 8.65948 10.0004 8.99496 10 9.35965V11.1638H0Z" fill="white"/>
</svg>
