<svg width="10" height="73" viewBox="0 0 10 73" fill="none" xmlns="http://www.w3.org/2000/svg">
<path d="M5 21.3301C3.58874 21.3301 2.31169 21.7602 1.40411 22.4315C0.950649 22.7689 0.590909 23.1657 0.352814 23.5848C0.114719 24.0038 0 24.4229 0 24.853C0 25.2832 0.114719 25.7023 0.352814 26.1213C0.590909 26.5403 0.950649 26.9371 1.40411 27.2746C2.31169 27.9458 3.58874 28.376 5 28.376C6.41126 28.376 7.68831 27.9458 8.59524 27.2746C9.04978 26.9371 9.40909 26.5403 9.64719 26.1213C9.88528 25.7023 10 25.2832 10 24.853C10 24.4229 9.88528 24.0038 9.64719 23.5848C9.40909 23.1657 9.04978 22.7689 8.59524 22.4315C7.68831 21.7602 6.41126 21.3301 5 21.3301ZM0 26.4513V28.3129C0 28.5466 0.114719 28.9656 0.352814 29.3847C0.590909 29.8037 0.950649 30.2005 1.40411 30.538C2.31169 31.2092 3.58874 31.6394 5 31.6394C6.41126 31.6394 7.68831 31.2092 8.59524 30.538C9.04978 30.2005 9.40909 29.8037 9.64719 29.3847C9.88528 28.9656 10 28.5466 10 28.3129V26.4513C9.97619 26.4996 9.95238 26.5441 9.92641 26.5886C9.63853 27.0929 9.2381 27.5268 8.75108 27.8865C7.77706 28.6096 6.45671 29.0435 5 29.0435C3.54329 29.0435 2.22294 28.6096 1.24935 27.8865C0.762554 27.5268 0.361688 27.0929 0.074026 26.5886C0.0482684 26.5441 0.0238095 26.4958 0 26.4513Z" fill="white"/>
<path d="M7.5 1.40258C8.2601 1.85499 8.89129 2.5057 9.33014 3.2893C9.76898 4.07291 10 4.9618 10 5.86662C9.99999 6.77145 9.76896 7.66034 9.3301 8.44393C8.89125 9.22753 8.26005 9.87824 7.49994 10.3306C6.73984 10.783 5.87761 11.0212 4.99992 11.0212C4.12223 11.0212 3.26001 10.783 2.49992 10.3306C1.73983 9.87813 1.10864 9.22741 0.669817 8.44379C0.23099 7.66018 -2.22948e-05 6.77129 1.61383e-09 5.86646L0.00250006 5.69945C0.0305016 4.80925 0.281774 3.94171 0.73182 3.18142C1.18187 2.42114 1.81533 1.79404 2.57045 1.36128C3.32557 0.928513 4.17657 0.704847 5.0405 0.712084C5.90443 0.719322 6.7518 0.957216 7.5 1.40258ZM5 2.7737C3.974 2.7737 3.116 3.5206 2.7255 4.57781H2.5C2.37256 4.57796 2.24998 4.62826 2.15732 4.71845C2.06465 4.80864 2.00888 4.93191 2.00141 5.06306C1.99395 5.19422 2.03534 5.32336 2.11713 5.42411C2.19893 5.52486 2.31495 5.5896 2.4415 5.60512L2.5085 5.60873C2.49658 5.78033 2.49658 5.95259 2.5085 6.12419H2.5C2.36739 6.12419 2.24022 6.1785 2.14645 6.27517C2.05268 6.37183 2 6.50294 2 6.63965C2 6.77636 2.05268 6.90747 2.14645 7.00414C2.24022 7.1008 2.36739 7.15511 2.5 7.15511H2.726C3.116 8.21335 3.974 8.95922 5 8.95922C5.5705 8.95922 6.1085 8.72366 6.542 8.30459C6.6388 8.21108 6.69561 8.08176 6.69992 7.94507C6.70424 7.80838 6.6557 7.67552 6.565 7.57573C6.4743 7.47593 6.34885 7.41737 6.21626 7.41292C6.08368 7.40847 5.9548 7.45851 5.858 7.55202C5.6035 7.79841 5.307 7.9283 5 7.9283C4.539 7.9283 4.112 7.63037 3.8325 7.15563L4.5 7.15511C4.63261 7.15511 4.75979 7.1008 4.85355 7.00414C4.94732 6.90747 5 6.77636 5 6.63965C5 6.50294 4.94732 6.37183 4.85355 6.27517C4.75979 6.1785 4.63261 6.12419 4.5 6.12419H3.5115C3.49574 5.95275 3.49574 5.78017 3.5115 5.60873H4.5C4.63261 5.60873 4.75979 5.55442 4.85355 5.45776C4.94732 5.36109 5 5.22998 5 5.09327C5 4.95656 4.94732 4.82545 4.85355 4.72879C4.75979 4.63212 4.63261 4.57781 4.5 4.57781H3.832C4.112 4.10307 4.539 3.80462 5 3.80462C5.3075 3.80462 5.604 3.93452 5.8585 4.18091C5.9553 4.27441 6.08418 4.32445 6.21676 4.32C6.34935 4.31556 6.4748 4.25699 6.5655 4.15719C6.6562 4.0574 6.70474 3.92454 6.70043 3.78785C6.69611 3.65117 6.6393 3.52184 6.5425 3.42833C6.109 3.00978 5.571 2.7737 5 2.7737Z" fill="white"/>
<path d="M5 41.9482C4.01109 41.9482 3.0444 42.2506 2.22215 42.817C1.3999 43.3834 0.759043 44.1884 0.380604 45.1303C0.00216639 46.0722 -0.0968502 47.1086 0.0960758 48.1085C0.289002 49.1084 0.765206 50.0269 1.46447 50.7478C2.16373 51.4686 3.05464 51.9596 4.02455 52.1585C4.99445 52.3574 5.99979 52.2553 6.91342 51.8651C7.82705 51.475 8.60794 50.8143 9.15735 49.9666C9.70676 49.119 10 48.1224 10 47.1029C9.9986 45.7362 9.47137 44.426 8.53399 43.4596C7.59661 42.4932 6.32565 41.9497 5 41.9482ZM7.69231 47.4994H5C4.89799 47.4994 4.80017 47.4576 4.72804 47.3833C4.65591 47.3089 4.61539 47.208 4.61539 47.1029V44.3273C4.61539 44.2221 4.65591 44.1213 4.72804 44.0469C4.80017 43.9726 4.89799 43.9308 5 43.9308C5.10201 43.9308 5.19984 43.9726 5.27197 44.0469C5.34409 44.1213 5.38462 44.2221 5.38462 44.3273V46.7064H7.69231C7.79431 46.7064 7.89214 46.7481 7.96427 46.8225C8.0364 46.8969 8.07692 46.9977 8.07692 47.1029C8.07692 47.208 8.0364 47.3089 7.96427 47.3833C7.89214 47.4576 7.79431 47.4994 7.69231 47.4994Z" fill="white"/>
<path d="M5 67.721C4.3125 67.721 3.72396 67.4687 3.23437 66.964C2.74479 66.4592 2.5 65.8525 2.5 65.1437C2.5 64.435 2.74479 63.8282 3.23437 63.3235C3.72396 62.8188 4.3125 62.5664 5 62.5664C5.6875 62.5664 6.27604 62.8188 6.76562 63.3235C7.25521 63.8282 7.5 64.435 7.5 65.1437C7.5 65.8525 7.25521 66.4592 6.76562 66.964C6.27604 67.4687 5.6875 67.721 5 67.721ZM0 72.8757V71.0716C0 70.7064 0.0912501 70.371 0.27375 70.0651C0.45625 69.7593 0.698333 69.5256 1 69.3641C1.64583 69.0312 2.30208 68.7816 2.96875 68.6154C3.63542 68.4491 4.3125 68.3658 5 68.3654C5.6875 68.3649 6.36458 68.4483 7.03125 68.6154C7.69792 68.7825 8.35417 69.032 9 69.3641C9.30208 69.5252 9.54437 69.7588 9.72687 70.0651C9.90937 70.3714 10.0004 70.7069 10 71.0716V72.8757H0Z" fill="white"/>
</svg>
