<svg width="10" height="11" viewBox="0 0 10 11" fill="none" xmlns="http://www.w3.org/2000/svg">
<path d="M7.5 0.690661C8.2601 1.14307 8.89129 1.79379 9.33014 2.57739C9.76898 3.361 10 4.24988 10 5.15471C9.99999 6.05954 9.76895 6.94842 9.3301 7.73202C8.89125 8.51562 8.26005 9.16632 7.49994 9.61873C6.73984 10.0711 5.87761 10.3093 4.99992 10.3093C4.12223 10.3093 3.26001 10.0711 2.49992 9.61865C1.73983 9.16622 1.10864 8.51549 0.669817 7.73188C0.23099 6.94827 -2.22948e-05 6.05937 1.61383e-09 5.15455L0.00250006 4.98754C0.0305016 4.09733 0.281774 3.2298 0.73182 2.46951C1.18187 1.70922 1.81533 1.08213 2.57045 0.649364C3.32557 0.216599 4.17657 -0.00706736 5.0405 0.000170229C5.90443 0.00740782 6.7518 0.245302 7.5 0.690661ZM5 2.06179C3.974 2.06179 3.116 2.80869 2.7255 3.8659H2.5C2.37256 3.86604 2.24998 3.91635 2.15732 4.00654C2.06465 4.09673 2.00888 4.21999 2.00141 4.35115C1.99395 4.4823 2.03534 4.61145 2.11713 4.7122C2.19893 4.81294 2.31495 4.87769 2.4415 4.89321L2.5085 4.89682C2.49658 5.06842 2.49658 5.24068 2.5085 5.41228H2.5C2.36739 5.41228 2.24021 5.46658 2.14645 5.56325C2.05268 5.65992 2 5.79103 2 5.92774C2 6.06444 2.05268 6.19555 2.14645 6.29222C2.24021 6.38889 2.36739 6.4432 2.5 6.4432H2.726C3.116 7.50144 3.974 8.24731 5 8.24731C5.5705 8.24731 6.1085 8.01174 6.542 7.59267C6.6388 7.49916 6.69561 7.36984 6.69992 7.23315C6.70424 7.09647 6.6557 6.96361 6.565 6.86381C6.4743 6.76402 6.34885 6.70545 6.21626 6.701C6.08368 6.69656 5.9548 6.74659 5.858 6.8401C5.6035 7.08649 5.307 7.21639 5 7.21639C4.539 7.21639 4.112 6.91845 3.8325 6.44371L4.5 6.4432C4.63261 6.4432 4.75979 6.38889 4.85355 6.29222C4.94732 6.19555 5 6.06444 5 5.92774C5 5.79103 4.94732 5.65992 4.85355 5.56325C4.75979 5.46658 4.63261 5.41228 4.5 5.41228H3.5115C3.49574 5.24084 3.49574 5.06825 3.5115 4.89682H4.5C4.63261 4.89682 4.75979 4.84251 4.85355 4.74584C4.94732 4.64917 5 4.51806 5 4.38136C5 4.24465 4.94732 4.11354 4.85355 4.01687C4.75979 3.9202 4.63261 3.8659 4.5 3.8659H3.832C4.112 3.39116 4.539 3.09271 5 3.09271C5.3075 3.09271 5.604 3.2226 5.8585 3.46899C5.9553 3.5625 6.08418 3.61253 6.21676 3.60809C6.34935 3.60364 6.4748 3.54508 6.5655 3.44528C6.6562 3.34548 6.70474 3.21263 6.70043 3.07594C6.69611 2.93925 6.6393 2.80993 6.5425 2.71642C6.109 2.29787 5.571 2.06179 5 2.06179Z" fill="white"/>
</svg>
